<mxfile host="app.diagrams.net" agent="Mozilla/5.0 (Macintosh; Intel Mac OS X 10_15_7) AppleWebKit/537.36 (KHTML, like Gecko) Chrome/128.0.0.0 Safari/537.36" version="24.7.10">
  <diagram name="第 1 页" id="uvA3fUB1pq6OTm_2FXy5">
    <mxGraphModel dx="2074" dy="1035" grid="1" gridSize="10" guides="1" tooltips="1" connect="1" arrows="1" fold="1" page="1" pageScale="1" pageWidth="827" pageHeight="1169" math="0" shadow="0">
      <root>
        <mxCell id="0" />
        <mxCell id="1" parent="0" />
        <mxCell id="LjSOY5VEXymtxm4QfrvY-1" value="" style="edgeStyle=orthogonalEdgeStyle;rounded=0;orthogonalLoop=1;jettySize=auto;html=1;" edge="1" parent="1" source="LjSOY5VEXymtxm4QfrvY-2" target="LjSOY5VEXymtxm4QfrvY-4">
          <mxGeometry relative="1" as="geometry" />
        </mxCell>
        <mxCell id="LjSOY5VEXymtxm4QfrvY-2" value="request" style="rounded=1;whiteSpace=wrap;html=1;" vertex="1" parent="1">
          <mxGeometry x="270" y="60" width="120" height="60" as="geometry" />
        </mxCell>
        <mxCell id="LjSOY5VEXymtxm4QfrvY-3" value="" style="edgeStyle=orthogonalEdgeStyle;rounded=0;orthogonalLoop=1;jettySize=auto;html=1;" edge="1" parent="1" source="LjSOY5VEXymtxm4QfrvY-4" target="LjSOY5VEXymtxm4QfrvY-5">
          <mxGeometry relative="1" as="geometry" />
        </mxCell>
        <mxCell id="LjSOY5VEXymtxm4QfrvY-4" value="创建context" style="rounded=1;whiteSpace=wrap;html=1;" vertex="1" parent="1">
          <mxGeometry x="270" y="220" width="120" height="60" as="geometry" />
        </mxCell>
        <mxCell id="LjSOY5VEXymtxm4QfrvY-5" value="读取应用ji" style="whiteSpace=wrap;html=1;rounded=1;" vertex="1" parent="1">
          <mxGeometry x="270" y="360" width="120" height="60" as="geometry" />
        </mxCell>
      </root>
    </mxGraphModel>
  </diagram>
</mxfile>
